<svg width="9" height="13" viewBox="0 0 9 13" fill="none" xmlns="http://www.w3.org/2000/svg">
<path d="M4.5 0C3.6745 0 2.91946 0.203443 2.2349 0.610329C1.55034 1.01721 1.00671 1.56651 0.604027 2.25822C0.201342 2.94992 0 3.70266 0 4.51643C0 5.3302 0.231544 6.26604 0.694631 7.32394C1.07718 8.15806 1.5906 9.07355 2.2349 10.0704C2.71812 10.7621 3.24161 11.464 3.80537 12.1761L4.5 13L5.19463 12.1761C5.75839 11.464 6.28188 10.7621 6.7651 10.0704C7.4094 9.07355 7.92282 8.15806 8.30537 7.32394C8.76846 6.26604 9 5.3302 9 4.51643C9 3.70266 8.79866 2.94992 8.39597 2.25822C7.99329 1.56651 7.44966 1.01721 6.7651 0.610329C6.08054 0.203443 5.3255 0 4.5 0Z" />
</svg>
