<svg width="15" height="14" viewBox="0 0 15 14" fill="none" xmlns="http://www.w3.org/2000/svg">
<path d="M10.8633 0.5C10.207 0.5 9.58594 0.640625 9 0.921875C8.08622 1.36049 6.89035 1.36049 5.97656 0.921875C5.39062 0.640625 4.76953 0.5 4.11328 0.5C3.36328 0.5 2.67188 0.6875 2.03906 1.0625C1.40625 1.41406 0.902344 1.90625 0.527344 2.53906C0.175781 3.17188 0 3.86328 0 4.61328C0 5.52734 0.269531 6.44141 0.808594 7.35547C1.27734 8.15234 2.01562 9.06641 3.02344 10.0977C3.65625 10.7539 4.78125 11.8086 6.39844 13.2617C7.01744 13.8208 7.95912 13.8208 8.57812 13.2617C10.1953 11.8086 11.3203 10.7539 11.9531 10.0977C12.9609 9.06641 13.6992 8.15234 14.168 7.35547C14.707 6.44141 14.9766 5.52734 14.9766 4.61328C14.9766 3.86328 14.7891 3.17188 14.4141 2.53906C14.0625 1.90625 13.5703 1.41406 12.9375 1.0625C12.3047 0.6875 11.6133 0.5 10.8633 0.5Z" fill="white"/>
</svg>
