<svg width="10" height="14" viewBox="0 0 10 14" fill="none" xmlns="http://www.w3.org/2000/svg">
<path fill-rule="evenodd" clip-rule="evenodd" d="M6.15107 1.5003C5.6888 1.49178 5.11867 1.65615 4.60773 2.44172L1.84659 6.68695C1.58215 7.09353 1.50236 7.40742 1.50005 7.64011C1.49777 7.87001 1.57059 8.06325 1.68616 8.23273C1.93323 8.59502 2.35052 8.8161 2.54486 8.9157C2.73154 9.01138 3.16802 9.2307 3.6735 9.24001C4.13576 9.24853 4.7059 9.08416 5.21684 8.29859L7.20485 5.24202L8.04314 5.78725L6.05512 8.84382C5.35117 9.92614 4.45302 10.2545 3.65508 10.2398C2.90879 10.2261 2.29847 9.91316 2.0955 9.80909L2.0786 9.80043C1.87861 9.69806 1.25866 9.38073 0.85999 8.79615C0.649186 8.48703 0.495465 8.0972 0.500102 7.63018C0.504712 7.16596 0.665302 6.66909 1.00831 6.14172L3.76944 1.89649C4.47339 0.814168 5.37154 0.485765 6.16949 0.500469C6.91578 0.51422 7.52609 0.827154 7.72906 0.931225L7.73579 0.934675C7.73905 0.936345 7.74244 0.938081 7.74596 0.939884C7.94595 1.04225 8.56591 1.35958 8.96457 1.94417C9.17538 2.25328 9.3291 2.64311 9.32446 3.11013C9.31985 3.57436 9.15926 4.07122 8.81626 4.59859L7.97797 4.05336C8.24241 3.64678 8.3222 3.33289 8.32451 3.1002C8.32679 2.8703 8.25398 2.67706 8.1384 2.50759C7.89133 2.1453 7.47404 1.92421 7.2797 1.82461C7.09302 1.72893 6.65655 1.50961 6.15107 1.5003ZM7.9045 4.19091L7.91123 4.19436C7.91449 4.19603 7.91788 4.19776 7.9214 4.19957C8.12139 4.30193 8.74134 4.61926 9.14001 5.20385C9.35081 5.51296 9.50454 5.90279 9.4999 6.36981C9.49529 6.83404 9.3347 7.3309 8.99169 7.85827L6.23056 12.1035C5.52661 13.1858 4.62846 13.5142 3.83051 13.4995C3.08423 13.4858 2.47392 13.1728 2.27094 13.0688L2.26421 13.0653C2.26095 13.0636 2.25756 13.0619 2.25404 13.0601C2.05406 12.9577 1.4341 12.6404 1.03543 12.0558C0.824625 11.7467 0.670903 11.3569 0.675541 10.8899C0.680151 10.4256 0.84074 9.92877 1.18375 9.4014L2.02203 9.94663C1.75759 10.3532 1.6778 10.6671 1.67549 10.8998C1.67321 11.1297 1.74602 11.3229 1.8616 11.4924C2.10867 11.8547 2.52596 12.0758 2.7203 12.1754C2.90698 12.2711 3.34345 12.4904 3.84894 12.4997C4.3112 12.5082 4.88133 12.3438 5.39227 11.5583L8.15341 7.31304C8.41785 6.90646 8.49764 6.59257 8.49995 6.35988C8.50223 6.12998 8.42942 5.93674 8.31384 5.76727C8.06677 5.40498 7.64948 5.18389 7.45514 5.08429C7.26846 4.98862 6.83199 4.7693 6.3265 4.75998C5.86424 4.75146 5.29411 4.91583 4.78316 5.70141L2.79515 8.75797L1.95686 8.21274L3.94488 5.15618C4.64883 4.07385 5.54698 3.74545 6.34493 3.76015C7.09121 3.7739 7.70153 4.08684 7.9045 4.19091Z" fill="#D0D0D0"/>
</svg>
