<svg width="16" height="13" viewBox="0 0 16 13" xmlns="http://www.w3.org/2000/svg">
<path d="M15.6797 1.51172C15.1172 1.76953 14.5078 1.94531 13.8516 2.03906C14.5312 1.61719 15 1.01953 15.2578 0.246094C14.625 0.621094 13.9453 0.878906 13.2188 1.01953C12.5859 0.339844 11.7891 0 10.8281 0C9.96094 0 9.21094 0.316406 8.57812 0.949219C7.94531 1.58203 7.62891 2.34375 7.62891 3.23438C7.62891 3.46875 7.66406 3.71484 7.73438 3.97266C6.42188 3.90234 5.17969 3.57422 4.00781 2.98828C2.85938 2.37891 1.88672 1.58203 1.08984 0.597656C0.808594 1.08984 0.667969 1.62891 0.667969 2.21484C0.667969 2.77734 0.796875 3.29297 1.05469 3.76172C1.3125 4.23047 1.65234 4.60547 2.07422 4.88672C1.58203 4.88672 1.10156 4.75781 0.632812 4.5V4.53516C0.632812 5.30859 0.878906 5.98828 1.37109 6.57422C1.86328 7.16016 2.47266 7.53516 3.19922 7.69922C2.94141 7.76953 2.66016 7.80469 2.35547 7.80469C2.16797 7.80469 1.96875 7.78125 1.75781 7.73438C1.96875 8.39062 2.34375 8.92969 2.88281 9.35156C3.44531 9.75 4.06641 9.96094 4.74609 9.98438C3.59766 10.8984 2.27344 11.3555 0.773438 11.3555C0.515625 11.3555 0.257812 11.3438 0 11.3203C1.5 12.2812 3.14062 12.7617 4.92188 12.7617C6.79688 12.7617 8.46094 12.2812 9.91406 11.3203C11.25 10.4766 12.293 9.32812 13.043 7.875C13.7461 6.49219 14.0977 5.07422 14.0977 3.62109L14.0625 3.19922C14.6953 2.75391 15.2344 2.19141 15.6797 1.51172Z"/>
</svg>
