<svg width="17" height="17" viewBox="0 0 17 17" xmlns="http://www.w3.org/2000/svg">
<path fill-rule="evenodd" clip-rule="evenodd" d="M0 1C0 0.447715 0.447715 0 1 0H16C16.5523 0 17 0.447715 17 1C17 1.55228 16.5523 2 16 2H1C0.447715 2 0 1.55228 0 1ZM0 8.5C0 7.94772 0.447715 7.5 1 7.5H16C16.5523 7.5 17 7.94772 17 8.5C17 9.05229 16.5523 9.5 16 9.5H1C0.447715 9.5 0 9.05229 0 8.5ZM0 16C0 15.4477 0.447715 15 1 15H16C16.5523 15 17 15.4477 17 16C17 16.5523 16.5523 17 16 17H1C0.447715 17 0 16.5523 0 16Z"/>
</svg>
