<svg width="18" height="19" viewBox="0 0 18 19" xmlns="http://www.w3.org/2000/svg">
<path fill-rule="evenodd" clip-rule="evenodd" d="M9.95113 11.2129C10.5351 10.6289 11.218 10.2565 11.9883 10.0987C12.271 10.0408 12.5654 10.0117 12.8711 10.0117C13.0863 10.0117 13.296 10.0261 13.5 10.0549C14.3734 10.178 15.1414 10.5643 15.7882 11.21C16.6097 12.0064 17.0273 12.9904 17.0273 14.1328C17.0273 14.6904 16.9208 15.2252 16.7069 15.7331C16.4936 16.2398 16.187 16.692 15.7911 17.0879C15.4153 17.4637 14.9738 17.7571 14.4714 17.9686C13.9635 18.1825 13.4286 18.2891 12.8711 18.2891C11.7327 18.2891 10.7494 17.8862 9.95113 17.0879L9.94534 17.0821C9.36381 16.4812 8.99239 15.7877 8.83564 15.0117C8.77862 14.7295 8.75 14.4364 8.75 14.1328C8.75 13.9203 8.76404 13.7132 8.79206 13.5117C8.91417 12.6338 9.30184 11.8621 9.95113 11.2129ZM12.8711 11.0117C11.9939 11.0117 11.2662 11.312 10.6582 11.92C10.0503 12.5279 9.75 13.2556 9.75 14.1328C9.75 15.009 10.0498 15.7507 10.6611 16.3837C11.2685 16.9897 11.9953 17.2891 12.8711 17.2891C13.2979 17.2891 13.7006 17.2081 14.0833 17.047C14.4715 16.8835 14.8034 16.6613 15.0839 16.3808C15.3911 16.0736 15.6236 15.729 15.7853 15.345C15.9464 14.9623 16.0273 14.5596 16.0273 14.1328C16.0273 13.2609 15.7194 12.535 15.0898 11.9257L15.0839 11.92C14.476 11.3121 13.7483 11.0117 12.8711 11.0117Z"/>
<path fill-rule="evenodd" clip-rule="evenodd" d="M13.2578 12.4453V13.777C13.2578 13.9104 13.328 14.034 13.4427 14.1024L14.6093 14.7979C14.8728 14.9549 14.9594 15.2955 14.8031 15.5594C14.648 15.8211 14.3115 15.9097 14.0476 15.7584L12.3829 14.8036C12.2282 14.7149 12.1328 14.5502 12.1328 14.3718V12.4453C12.1328 12.1347 12.3847 11.8828 12.6953 11.8828C13.006 11.8828 13.2578 12.1347 13.2578 12.4453Z"/>
<path d="M2.51172 5.27344H10.9883C11.5406 5.27344 11.9883 5.72115 11.9883 6.27344V10.0987C12.271 10.0408 12.5654 10.0117 12.8711 10.0117C13.0863 10.0117 13.296 10.0261 13.5 10.0549V3.02344C13.5 2.60156 13.3477 2.25 13.043 1.96875C12.7617 1.66406 12.4102 1.51172 11.9883 1.51172C11.5805 1.51172 11.25 1.18118 11.25 0.773438V0.755859C11.25 0.33841 10.9116 0 10.4941 0C10.0767 0 9.73828 0.33841 9.73828 0.755859C9.73828 1.17331 9.39987 1.51172 8.98242 1.51172H4.51758C4.10013 1.51172 3.76172 1.17331 3.76172 0.755859C3.76172 0.33841 3.42331 0 3.00586 0C2.58841 0 2.25 0.33841 2.25 0.755859V0.773438C2.25 1.18118 1.91946 1.51172 1.51172 1.51172C1.08984 1.51172 0.726562 1.66406 0.421875 1.96875C0.140625 2.25 0 2.60156 0 3.02344V13.5C0 13.9219 0.140625 14.2852 0.421875 14.5898C0.726562 14.8711 1.08984 15.0117 1.51172 15.0117H8.83564C8.77862 14.7295 8.75 14.4364 8.75 14.1328C8.75 13.9203 8.76404 13.7132 8.79206 13.5117H3L2.51172 13.51C1.95943 13.51 1.51172 13.0523 1.51172 12.5V6.27344C1.51172 5.72115 1.95943 5.27344 2.51172 5.27344Z"/>
</svg>
