<svg width="19" height="17" viewBox="0 0 19 17" xmlns="http://www.w3.org/2000/svg">
<path fill-rule="evenodd" clip-rule="evenodd" d="M9.61652 4.04297C9.19464 3.59766 8.6673 3.375 8.03448 3.375C7.40167 3.375 6.86261 3.59766 6.4173 4.04297C5.99542 4.46484 5.78448 4.99219 5.78448 5.625C5.78448 6.25781 5.99542 6.79688 6.4173 7.24219C6.86261 7.66406 7.40167 7.875 8.03448 7.875C8.6673 7.875 9.19464 7.66406 9.61652 7.24219C10.0618 6.79688 10.2845 6.25781 10.2845 5.625C10.2845 4.99219 10.0618 4.46484 9.61652 4.04297Z"/>
<path fill-rule="evenodd" clip-rule="evenodd" d="M18.0501 12.1211C18.0501 10.9787 17.6325 9.99471 16.8109 9.19824C16.2405 8.62881 15.5758 8.26109 14.8276 8.09774C15.1946 7.6628 15.5165 7.19519 15.7931 6.69491C16.161 6.0296 16.1613 5.22018 15.7923 4.55547C15.1364 3.37367 14.2262 2.38253 13.0618 1.58203C11.5618 0.527344 9.88607 0 8.0345 0C6.18294 0 4.50716 0.527344 3.00716 1.58203C1.8428 2.38253 0.932647 3.37367 0.276688 4.55547C-0.0922633 5.22018 -0.09194 6.0296 0.275923 6.69491C0.931939 7.88138 1.84235 8.88412 3.00716 9.70312C4.50716 10.7344 6.18294 11.25 8.0345 11.25C8.6774 11.25 9.2991 11.1878 9.89961 11.0635C9.81513 11.399 9.77277 11.7519 9.77277 12.1211C9.77277 13.2591 10.1751 14.2509 10.9681 15.0704L10.9739 15.0762C11.7722 15.8745 12.7555 16.2773 13.8939 16.2773C14.4514 16.2773 14.9862 16.1708 15.4941 15.9569C15.9966 15.7454 16.4381 15.452 16.8138 15.0762C17.2098 14.6803 17.5163 14.228 17.7297 13.7214C17.9435 13.2135 18.0501 12.6786 18.0501 12.1211ZM13.8939 9C13.0166 9 12.2889 9.3003 11.681 9.90824C11.0731 10.5162 10.7728 11.2439 10.7728 12.1211C10.7728 12.9973 11.0726 13.739 11.6839 14.372C12.2913 14.978 13.018 15.2773 13.8939 15.2773C14.3207 15.2773 14.7234 15.1964 15.1061 15.0353C15.4943 14.8718 15.8262 14.6496 16.1067 14.3691C16.4139 14.0619 16.6464 13.7173 16.808 13.3333C16.9692 12.9506 17.0501 12.5479 17.0501 12.1211C17.0501 11.2492 16.7421 10.5233 16.1126 9.91399L16.1067 9.90829C15.4987 9.30035 14.7711 9 13.8939 9ZM12.2055 2.81362L12.1991 2.80907C10.9543 1.93387 9.58047 1.5 8.0345 1.5C6.48854 1.5 5.11466 1.93387 3.86993 2.80907L3.86346 2.81362L3.85695 2.81809C2.87479 3.49333 2.12646 4.31368 1.5882 5.28343C1.47088 5.49479 1.47017 5.75486 1.58863 5.9691C2.12787 6.94437 2.87824 7.77746 3.8634 8.47149C5.10712 9.32475 6.4835 9.75 8.0345 9.75C9.12291 9.75 10.1253 9.54059 11.0562 9.12081C11.5037 8.69522 12.0071 8.39011 12.5615 8.20672C13.3737 7.56853 14.0081 6.82336 14.4804 5.9691C14.5988 5.75486 14.5981 5.49479 14.4808 5.28343C13.9425 4.31368 13.1942 3.49333 12.2121 2.81809L12.2055 2.81362Z"/>
<path d="M14.2806 10.4336V11.7653C14.2806 11.8987 14.3508 12.0223 14.4654 12.0907L15.6321 12.7862C15.8955 12.9432 15.9822 13.2838 15.8258 13.5477C15.6708 13.8094 15.3343 13.898 15.0704 13.7467L13.4057 12.7919C13.251 12.7032 13.1556 12.5384 13.1556 12.3601V10.4336C13.1556 10.1229 13.4074 9.87109 13.7181 9.87109C14.0287 9.87109 14.2806 10.1229 14.2806 10.4336Z"/>
</svg>
