<svg width="14" height="8" viewBox="0 0 14 8" fill="none" xmlns="http://www.w3.org/2000/svg">
<path d="M1.70711 0.292893C1.31658 -0.0976311 0.683418 -0.0976311 0.292893 0.292893C-0.0976311 0.683418 -0.0976311 1.31658 0.292893 1.70711L1.70711 0.292893ZM7 7L6.29289 7.70711C6.68342 8.09763 7.31658 8.09763 7.70711 7.70711L7 7ZM13.7071 1.70711C14.0976 1.31658 14.0976 0.683418 13.7071 0.292893C13.3166 -0.0976311 12.6834 -0.0976311 12.2929 0.292893L13.7071 1.70711ZM0.292893 1.70711L6.29289 7.70711L7.70711 6.29289L1.70711 0.292893L0.292893 1.70711ZM7.70711 7.70711L13.7071 1.70711L12.2929 0.292893L6.29289 6.29289L7.70711 7.70711Z" fill="#383838"/>
</svg>
